<svg width="52" height="39" viewBox="0 0 52 39" fill="none" xmlns="http://www.w3.org/2000/svg">
<path d="M43.3159 3.77163C40.0542 2.30064 36.5579 1.2134 32.9018 0.595157C32.8692 0.588906 32.8355 0.592934 32.8054 0.606684C32.7752 0.620434 32.75 0.643226 32.7334 0.671903C32.2857 1.45856 31.7868 2.48398 31.4372 3.29409C27.5596 2.71473 23.6174 2.71473 19.7397 3.29409C19.3503 2.39628 18.9112 1.52086 18.4244 0.671903C18.4079 0.642873 18.3829 0.619566 18.3528 0.605091C18.3227 0.590617 18.2889 0.585663 18.2559 0.590893C14.6019 1.20913 11.1057 2.29638 7.84182 3.76949C7.81374 3.78127 7.78994 3.80136 7.7736 3.82705C1.13926 13.5803 -0.679217 23.0927 0.214032 32.4856C0.216517 32.5086 0.223658 32.5309 0.23502 32.551C0.246381 32.5712 0.261726 32.5888 0.280119 32.6029C4.15241 35.4221 8.47144 37.5697 13.0563 38.9558C13.0883 38.9657 13.1225 38.9656 13.1544 38.9557C13.1864 38.9459 13.2146 38.9266 13.2354 38.9004C14.222 37.5809 15.0963 36.1811 15.8491 34.7155C15.8595 34.6955 15.8655 34.6735 15.8667 34.6509C15.8679 34.6283 15.8642 34.6058 15.856 34.5848C15.8477 34.5637 15.835 34.5447 15.8187 34.529C15.8024 34.5134 15.783 34.5014 15.7617 34.4938C14.3845 33.9752 13.0501 33.3494 11.7708 32.6221C11.7478 32.6089 11.7285 32.5903 11.7145 32.5679C11.7004 32.5454 11.6922 32.5198 11.6905 32.4934C11.6888 32.467 11.6937 32.4406 11.7048 32.4165C11.7158 32.3925 11.7327 32.3715 11.7538 32.3556C12.0224 32.1573 12.291 31.9505 12.5468 31.7437C12.5699 31.7251 12.5976 31.7133 12.627 31.7095C12.6563 31.7058 12.6861 31.7102 12.7131 31.7224C21.0849 35.483 30.1517 35.483 38.4255 31.7224C38.4525 31.7095 38.4826 31.7045 38.5124 31.7079C38.5422 31.7113 38.5704 31.7229 38.5939 31.7416C38.8497 31.9505 39.1162 32.1573 39.3869 32.3556C39.4083 32.3712 39.4254 32.3919 39.4368 32.4157C39.4482 32.4396 39.4535 32.4659 39.4522 32.4923C39.4509 32.5187 39.4431 32.5443 39.4295 32.567C39.4159 32.5896 39.3969 32.6086 39.3741 32.6221C38.0993 33.3554 36.7733 33.9758 35.3812 34.4917C35.3598 34.4995 35.3403 34.5117 35.324 34.5276C35.3078 34.5435 35.2951 34.5627 35.2868 34.5838C35.2785 34.605 35.2749 34.6277 35.2761 34.6504C35.2773 34.6732 35.2833 34.6954 35.2938 34.7155C36.0612 36.1801 36.9395 37.5744 37.9053 38.8983C37.9254 38.9254 37.9533 38.9457 37.9854 38.9564C38.0174 38.9671 38.052 38.9676 38.0844 38.9579C42.6771 37.5757 47.0032 35.4271 50.8798 32.6029C50.8987 32.5897 50.9146 32.5725 50.9263 32.5527C50.9381 32.5328 50.9455 32.5107 50.948 32.4878C52.0139 21.6281 49.1615 12.1925 43.382 3.83132C43.3679 3.80415 43.3444 3.78296 43.3159 3.77163ZM17.1005 26.7658C14.5806 26.7658 12.5021 24.4869 12.5021 21.692C12.5021 18.895 14.5401 16.6182 17.1005 16.6182C19.68 16.6182 21.7394 18.9142 21.6989 21.692C21.6989 24.489 19.6608 26.7658 17.1005 26.7658ZM34.102 26.7658C31.5801 26.7658 29.5036 24.4869 29.5036 21.692C29.5036 18.895 31.5396 16.6182 34.102 16.6182C36.6816 16.6182 38.741 18.9142 38.7005 21.692C38.7005 24.489 36.6837 26.7658 34.102 26.7658Z" fill="white"/>
</svg>
