<svg width="24" height="24" viewBox="0 0 24 24" fill="none" xmlns="http://www.w3.org/2000/svg">
<g clip-path="url(#clip0_10_417)">
<path fill-rule="evenodd" clip-rule="evenodd" d="M1.83629 11.7774C1.83629 17.1731 6.2265 21.5624 11.6222 21.5624C17.0178 21.5624 21.4071 17.1731 21.4071 11.7774C21.4071 6.38178 17.0178 1.99157 11.6222 1.99157C6.2265 1.99157 1.83629 6.38178 1.83629 11.7774ZM0.109375 11.7774C0.109375 5.42909 5.27382 0.264648 11.6222 0.264648C17.9705 0.264648 23.135 5.42909 23.135 11.7774C23.135 18.1248 17.9705 23.2902 11.6222 23.2902C5.27382 23.2902 0.109375 18.1248 0.109375 11.7774ZM8.95331 6.11267C9.2891 5.77496 9.83596 5.774 10.1746 6.11075L15.2479 11.1658C15.411 11.328 15.5012 11.5496 15.5012 11.7798C15.5003 12.0101 15.4081 12.2308 15.2431 12.3929L10.1708 17.3789C10.0019 17.5449 9.78319 17.6274 9.56541 17.6274C9.34187 17.6274 9.11833 17.541 8.94947 17.3683C8.6156 17.0287 8.61944 16.4828 8.96003 16.148L13.4107 11.7731L8.95523 7.33398C8.61752 6.99723 8.61656 6.45038 8.95331 6.11267Z" fill="white" fill-opacity="0.5"/>
</g>
<defs>
<clipPath id="clip0_10_417">
<rect width="23.0256" height="23.0256" fill="white" transform="translate(0.109375 0.264648)"/>
</clipPath>
</defs>
</svg>
