<svg width="40" height="39" viewBox="0 0 40 39" fill="none" xmlns="http://www.w3.org/2000/svg">
<path d="M19.9254 13.3781C16.402 13.3781 13.5267 16.2535 13.5267 19.7769C13.5267 23.3002 16.402 26.1756 19.9254 26.1756C23.4487 26.1756 26.3241 23.3002 26.3241 19.7769C26.3241 16.2535 23.4487 13.3781 19.9254 13.3781ZM39.1167 19.7769C39.1167 17.1271 39.1407 14.5014 38.9919 11.8565C38.8431 8.7843 38.1423 6.05777 35.8958 3.81126C33.6445 1.55994 30.9227 0.863909 27.8506 0.715101C25.2008 0.566294 22.5751 0.590295 19.9302 0.590295C17.2804 0.590295 14.6547 0.566294 12.0098 0.715101C8.93762 0.863909 6.21109 1.56474 3.96458 3.81126C1.71326 6.06257 1.01723 8.7843 0.868421 11.8565C0.719614 14.5062 0.743615 17.1319 0.743615 19.7769C0.743615 22.4218 0.719614 25.0523 0.868421 27.6973C1.01723 30.7694 1.71806 33.4959 3.96458 35.7425C6.21589 37.9938 8.93762 38.6898 12.0098 38.8386C14.6595 38.9874 17.2852 38.9634 19.9302 38.9634C22.5799 38.9634 25.2056 38.9874 27.8506 38.8386C30.9227 38.6898 33.6493 37.989 35.8958 35.7425C38.1471 33.4911 38.8431 30.7694 38.9919 27.6973C39.1455 25.0523 39.1167 22.4266 39.1167 19.7769ZM19.9254 29.6221C14.4771 29.6221 10.0801 25.2251 10.0801 19.7769C10.0801 14.3286 14.4771 9.93156 19.9254 9.93156C25.3736 9.93156 29.7707 14.3286 29.7707 19.7769C29.7707 25.2251 25.3736 29.6221 19.9254 29.6221ZM30.1739 11.8277C28.9018 11.8277 27.8746 10.8004 27.8746 9.52834C27.8746 8.25628 28.9018 7.22903 30.1739 7.22903C31.4459 7.22903 32.4732 8.25628 32.4732 9.52834C32.4736 9.8304 32.4144 10.1296 32.2989 10.4087C32.1835 10.6878 32.0142 10.9415 31.8006 11.155C31.587 11.3686 31.3334 11.538 31.0542 11.6534C30.7751 11.7688 30.4759 11.828 30.1739 11.8277Z" fill="white"/>
</svg>
