<svg width="53" height="54" viewBox="0 0 53 54" fill="none" xmlns="http://www.w3.org/2000/svg">
<path d="M26.7749 5.28516C14.712 5.28516 4.92188 15.0753 4.92188 27.1381C4.92188 39.201 14.712 48.9911 26.7749 48.9911C38.8377 48.9911 48.6278 39.201 48.6278 27.1381C48.6278 15.0753 38.8377 5.28516 26.7749 5.28516ZM36.9146 20.1452C36.5868 23.598 35.1664 31.9895 34.4453 35.8575C34.1393 37.4965 33.5274 38.0428 32.9593 38.1083C31.6918 38.2176 30.7302 37.2779 29.5065 36.4694C27.5834 35.2019 26.4908 34.4152 24.6333 33.1914C22.4698 31.771 23.8684 30.9843 25.114 29.7168C25.4418 29.389 31.0362 24.2973 31.1455 23.8383C31.1606 23.7688 31.1586 23.6967 31.1396 23.6281C31.1205 23.5596 31.085 23.4967 31.0362 23.445C30.9051 23.3357 30.7302 23.3794 30.5773 23.4013C30.3806 23.445 27.3212 25.4773 21.3553 29.4983C20.4812 30.0883 19.6945 30.3942 18.9952 30.3724C18.2085 30.3505 16.7225 29.9353 15.608 29.5638C14.2312 29.1268 13.1604 28.8864 13.2479 28.1215C13.2916 27.7282 13.8379 27.3348 14.865 26.9196C21.2461 24.1443 25.4855 22.3086 27.6053 21.4345C33.6804 18.8996 34.926 18.4625 35.7564 18.4625C35.9313 18.4625 36.3465 18.5062 36.6087 18.7247C36.8272 18.8996 36.8928 19.1399 36.9146 19.3148C36.8928 19.4459 36.9365 19.8392 36.9146 20.1452Z" fill="white"/>
</svg>
