<svg width="48" height="39" viewBox="0 0 48 39" fill="none" xmlns="http://www.w3.org/2000/svg">
<path d="M47.5716 5.14745C45.8344 5.89681 43.944 6.43611 41.9969 6.64616C44.0185 5.44513 45.5324 3.5477 46.2545 1.30986C44.3575 2.43837 42.2793 3.2297 40.1121 3.64875C39.2063 2.68042 38.1108 1.909 36.8939 1.38257C35.6769 0.856132 34.3646 0.585962 33.0387 0.588891C27.674 0.588891 23.3595 4.93741 23.3595 10.2737C23.3595 11.0231 23.4504 11.7724 23.598 12.4934C15.5651 12.0733 8.40088 8.2357 3.63795 2.36009C2.77009 3.84242 2.3153 5.53023 2.3209 7.24791C2.3209 10.6086 4.02965 13.572 6.63536 15.3148C5.09978 15.2543 3.60016 14.8323 2.25846 14.0829V14.2021C2.25846 18.9083 5.58513 22.8083 10.0188 23.7053C9.18633 23.9215 8.32996 24.0322 7.46987 24.0346C6.83973 24.0346 6.24365 23.9721 5.6419 23.887C6.86811 27.7246 10.4389 30.5119 14.6909 30.6027C11.3642 33.2085 7.19737 34.7412 2.67287 34.7412C1.86107 34.7412 1.11172 34.7128 0.333984 34.622C4.62573 37.3753 9.71792 38.9648 15.2018 38.9648C33.0046 38.9648 42.7462 24.2162 42.7462 11.4148C42.7462 10.9947 42.7462 10.5746 42.7178 10.1545C44.6026 8.775 46.2545 7.06625 47.5716 5.14745Z" fill="white"/>
</svg>
