<svg width="55" height="39" viewBox="0 0 55 39" fill="none" xmlns="http://www.w3.org/2000/svg">
<path d="M27.7756 0.588867H28.0795C30.8862 0.599111 45.1078 0.701547 48.9423 1.73274C50.1015 2.04745 51.1578 2.66088 52.0057 3.51174C52.8535 4.36259 53.4632 5.42106 53.7739 6.58138C54.1187 7.8789 54.3612 9.59641 54.5251 11.3686L54.5592 11.7237L54.6343 12.6114L54.6616 12.9666C54.8836 16.0874 54.9109 19.0103 54.9143 19.6488V19.9049C54.9109 20.5673 54.8802 23.6882 54.6343 26.9388L54.607 27.2974L54.5763 27.6525C54.4055 29.6056 54.1529 31.5451 53.7739 32.9723C53.4642 34.1331 52.8548 35.1921 52.0068 36.0431C51.1588 36.8941 50.102 37.5072 48.9423 37.821C44.9814 38.8863 29.9267 38.9614 27.8405 38.9648H27.3556C26.3005 38.9648 21.9367 38.9444 17.3612 38.7873L16.7808 38.7668L16.4837 38.7531L15.8998 38.7292L15.3159 38.7053C11.5258 38.538 7.91664 38.2683 6.25376 37.8176C5.09449 37.5041 4.03795 36.8915 3.18999 36.0411C2.34202 35.1907 1.7324 34.1325 1.4222 32.9723C1.04318 31.5485 0.790508 29.6056 0.619781 27.6525L0.592464 27.294L0.565148 26.9388C0.396633 24.6251 0.303253 22.3066 0.285156 19.9868L0.285156 19.5669C0.291985 18.8327 0.319302 16.2957 0.503687 13.4958L0.527588 13.1441L0.537832 12.9666L0.565148 12.6114L0.640268 11.7237L0.674413 11.3686C0.838311 9.59641 1.08074 7.87549 1.42561 6.58138C1.73529 5.4206 2.34468 4.36162 3.19268 3.51063C4.04068 2.65963 5.0975 2.04651 6.25718 1.73274C7.92006 1.28885 11.5292 1.01568 15.3194 0.844957L15.8998 0.821056L16.4871 0.800569L16.7808 0.790325L17.3647 0.766424C20.6143 0.661852 23.8653 0.603798 27.1166 0.592282H27.7756V0.588867ZM22.1382 11.5495V28.0008L36.3324 19.7786L22.1382 11.5495Z" fill="white"/>
</svg>
